#!OML:ASF I:\Actors\actors\Patient Classification 2\Patient 1\Session 1\actor1.ASF
:FULLY-SPECIFIED
:DEGREES
80
root -1.13919 18.0814 5.77285 -2.23617 -1.59431 -4.92461
lowerback 2.51006 1.76653 3.13957
upperback -0.909047 2.47449 0.479587
thorax -2.22917 1.19326 -1.3718
lowerneck -12.2346 -2.77511 -0.644636
upperneck 17.8495 -4.0367 1.77439
head 7.55923 -1.80559 0.280647
rclavicle 2.13942e-014 3.97569e-015
rhumerus -48.1898 -3.01525 -85.8271
rradius 42.3037
rwrist 7.52421
rhand -8.64403 -28.0908
rfingers 7.12502
rthumb 17.2891 -57.3418
lclavicle 2.13942e-014 3.97569e-015
lhumerus -41.9842 9.02741 85.4471
lradius 36.5091
lwrist -9.3766
lhand -4.00048 -24.9193
lfingers 7.12502
lthumb 21.7535 3.87831
rfemur 12.3389 15.3896 24.4816
rtibia -3.18055e-015
rfoot -28.269 -21.2301
rtoes 6.22813
lfemur 21.1582 -10.1477 -13.0396
ltibia -19.9615
lfoot -4.73023 22.4051
ltoes -6.1664
81
root -1.14051 18.0804 5.7715 -2.2664 -1.58866 -4.93706
lowerback 2.55326 1.77074 3.19503
upperback -0.894939 2.48302 0.46312
thorax -2.23554 1.19663 -1.42122
lowerneck -12.3435 -2.78175 -0.769468
upperneck 17.9691 -4.05753 1.94652
head 7.62476 -1.80548 0.352913
rclavicle 1.64494e-014 -2.38542e-015
rhumerus -48.2989 -3.08017 -85.8858
rradius 42.4065
rwrist 7.63672
rhand -8.84409 -27.9652
rfingers 7.12502
rthumb 17.0965 -57.233
lclavicle 1.64494e-014 -2.38542e-015
lhumerus -41.9749 8.98946 85.4227
lradius 36.4836
lwrist -9.35842
lhand -3.96662 -24.9042
lfingers 7.12502
lthumb 21.786 3.8896
rfemur 12.37 15.3793 24.5084
rtibia -6.67916e-014
rfoot -28.2677 -21.2417
rtoes 6.12228
lfemur 21.1933 -10.1571 -13.0268
ltibia -19.9763
lfoot -4.72239 22.4015
ltoes -6.21447
82
root -1.14184 18.0802 5.76996 -2.29577 -1.58456 -4.982
lowerback 2.60507 1.77413 3.27669
upperback -0.884589 2.49225 0.464215
thorax -2.25027 1.19992 -1.46768
lowerneck -12.3799 -2.79804 -0.803445
upperneck 18.0144 -4.08317 1.99173
head 7.64829 -1.81492 0.369841
rclavicle -5.56597e-015 -1.19271e-014
rhumerus -48.4144 -3.08649 -85.9421
rradius 42.5913
rwrist 7.92604
rhand -8.77947 -27.8853
rfingers 7.12502
rthumb 17.1587 -57.1476
lclavicle -5.56597e-015 -1.19271e-014
lhumerus -41.9517 9.00053 85.3567
lradius 36.3434
lwrist -9.36341
lhand -3.9807 -25.3305
lfingers 7.12502
lthumb 21.7725 3.4649
rfemur 12.4024 15.368 24.5717
rtibia 1.59028e-015
rfoot -28.2907 -21.219
rtoes 6.24477
lfemur 21.2229 -10.1152 -12.9647
ltibia -19.9838
lfoot -4.68429 22.3594
ltoes -6.25937
83
root -1.14358 18.0803 5.76888 -2.29864 -1.5829 -5.00721
lowerback 2.62186 1.76686 3.29465
upperback -0.888428 2.48442 0.483603
thorax -2.26417 1.1956 -1.45818
lowerneck -12.3193 -2.79451 -0.793683
upperneck 17.9715 -4.07567 1.97375
head 7.62261 -1.81339 0.364276
rclavicle -2.52953e-014 -1.27222e-014
rhumerus -48.516 -3.05062 -85.9778
rradius 42.6609
rwrist 8.16995
rhand -8.60552 -27.7775
rfingers 7.12502
rthumb 17.3261 -57.0252
lclavicle -2.52953e-014 -1.27222e-014
lhumerus -41.9599 9.14216 85.2247
lradius 36.0871
lwrist -9.38212
lhand -4.01638 -26.2998
lfingers 7.12502
lthumb 21.7382 2.49957
rfemur 12.4059 15.3625 24.6067
rtibia 9.54166e-015
rfoot -28.3153 -21.2082
rtoes 6.27099
lfemur 21.2227 -10.0369 -12.9148
ltibia -19.9928
lfoot -4.63695 22.28
ltoes -6.44957
84
root -1.14482 18.0805 5.76781 -2.2946 -1.57973 -4.98235
lowerback 2.64661 1.75787 3.26766
upperback -0.906041 2.47298 0.486255
thorax -2.29799 1.18954 -1.44121
lowerneck -12.2791 -2.78966 -0.811751
upperneck 17.952 -4.06467 1.97278
head 7.6092 -1.81003 0.368765
rclavicle -1.00883e-014 2.38542e-015
rhumerus -48.6282 -3.06785 -85.9924
rradius 42.6667
rwrist 8.29151
rhand -8.50084 -27.7401
rfingers 7.12502
rthumb 17.4269 -56.9789
lclavicle -1.00883e-014 2.38542e-015
lhumerus -42.0157 9.23681 85.1426
lradius 35.9709
lwrist -9.37838
lhand -4.03487 -26.8452
lfingers 7.12502
lthumb 21.7205 1.95626
rfemur 12.3957 15.3602 24.582
rtibia 3.65764e-014
rfoot -28.3347 -21.2218
rtoes 6.17094
lfemur 21.2196 -10.0094 -12.933
ltibia -20.0121
lfoot -4.60503 22.2277
ltoes -6.48861
85
root -1.1459 18.0806 5.7662 -2.28787 -1.57698 -4.96389
lowerback 2.67059 1.75425 3.2602
upperback -0.912606 2.46883 0.478143
thorax -2.31837 1.1871 -1.44621
lowerneck -12.2807 -2.79137 -0.809518
upperneck 17.9343 -4.06351 1.95526
head 7.60322 -1.81116 0.36287
rclavicle -3.29983e-014 -7.55382e-015
rhumerus -48.7441 -3.0845 -86.0326
rradius 42.6809
rwrist 8.39694
rhand -8.57183 -27.7406
rfingers 7.12502
rthumb 17.3586 -56.9854
lclavicle -3.29983e-014 -7.55382e-015
lhumerus -42.0364 9.27264 85.1063
lradius 35.9802
lwrist -9.40967
lhand -3.97583 -26.8832
lfingers 7.12502
lthumb 21.7772 1.9117
rfemur 12.3796 15.359 24.561
rtibia 1.74931e-014
rfoot -28.3825 -21.1956
rtoes 6.3529
lfemur 21.2172 -10.0239 -12.9501
ltibia -20.0366
lfoot -4.58335 22.2205
ltoes -6.46999
86
root -1.14713 18.0807 5.76447 -2.27744 -1.56515 -4.99498
lowerback 2.6668 1.74428 3.2773
upperback -0.897062 2.45611 0.499491
thorax -2.30109 1.18112 -1.43286
lowerneck -12.3457 -2.7894 -0.841486
upperneck 17.9602 -4.05704 1.96658
head 7.62413 -1.80831 0.371387
rclavicle 2.72583e-014 8.74653e-015
rhumerus -48.8097 -3.03992 -86.0737
rradius 42.6714
rwrist 8.42159
rhand -8.66871 -27.6995
rfingers 7.12502
rthumb 17.2653 -56.9525
lclavicle 2.72583e-014 8.74653e-015
lhumerus -41.9976 9.32849 85.1003
lradius 35.9755
lwrist -9.44326
lhand -3.93713 -26.8858
lfingers 7.12502
lthumb 21.8143 1.90473
rfemur 12.3625 15.3457 24.5922
rtibia 3.18055e-014
rfoot -28.4798 -21.1313
rtoes 6.71302
lfemur 21.2077 -10.044 -12.8997
ltibia -20.0618
lfoot -4.61993 22.1959
ltoes -6.13795
87
root -1.14863 18.081 5.76203 -2.25711 -1.53798 -5.03269
lowerback 2.65624 1.72961 3.2686
upperback -0.881315 2.43647 0.545803
thorax -2.28224 1.17226 -1.37898
lowerneck -12.4396 -2.80097 -0.934875
upperneck 18.0147 -4.063 2.00692
head 7.66177 -1.81225 0.397637
rclavicle -1.83876e-014 -7.15625e-015
rhumerus -48.8227 -2.90978 -86.1078
rradius 42.5486
rwrist 8.12112
rhand -8.79517 -27.7811
rfingers 7.12502
rthumb 17.1436 -57.0447
lclavicle -1.83876e-014 -7.15625e-015
lhumerus -41.9659 9.28519 85.2209
lradius 36.1134
lwrist -9.39226
lhand -3.99755 -26.4234
lfingers 7.12502
lthumb 21.7563 2.37387
rfemur 12.3316 15.3167 24.63
rtibia -1.59028e-015
rfoot -28.5047 -21.1234
rtoes 6.65598
lfemur 21.1763 -9.96224 -12.8191
ltibia -20.091
lfoot -4.62087 22.0705
ltoes -5.71429
88
root -1.15016 18.0808 5.76017 -2.2403 -1.49411 -5.03762
lowerback 2.64788 1.72323 3.24167
upperback -0.867015 2.42695 0.574321
thorax -2.26557 1.16854 -1.33373
lowerneck -12.5229 -2.83323 -1.0298
upperneck 18.0363 -4.09291 2.03146
head 7.6868 -1.82964 0.416838
rclavicle -1.82882e-014 -1.19271e-015
rhumerus -48.8598 -2.68723 -86.207
rradius 42.4526
rwrist 7.74095
rhand -8.98949 -28.0706
rfingers 7.12502
rthumb 16.9566 -57.3504
lclavicle -1.82882e-014 -1.19271e-015
lhumerus -41.947 9.14614 85.3612
lradius 36.2934
lwrist -9.29451
lhand -4.01084 -25.9308
lfingers 7.12502
lthumb 21.7435 2.86794
rfemur 12.311 15.2723 24.6342
rtibia -7.95139e-015
rfoot -28.4533 -21.1434
rtoes 6.48909
lfemur 21.1527 -9.83278 -12.7785
ltibia -20.1348
lfoot -4.5451 21.9204
ltoes -5.88527
89
root -1.1508 18.0805 5.7597 -2.24274 -1.43899 -5.03012
lowerback 2.62311 1.73008 3.24634
upperback -0.839243 2.43463 0.578582
thorax -2.22271 1.17333 -1.33083
lowerneck -12.5669 -2.88815 -1.14744
upperneck 18.0043 -4.15241 2.07882
head 7.68869 -1.86138 0.445027
rclavicle -1.7667e-014 1.35174e-014
rhumerus -48.9413 -2.39235 -86.3855
rradius 42.5736
rwrist 7.67299
rhand -8.63735 -28.712
rfingers 7.12502
rthumb 17.2955 -57.9624
lclavicle -1.7667e-014 1.35174e-014
lhumerus -41.9057 9.02805 85.386
lradius 36.291
lwrist -9.1189
lhand -3.88346 -26.3138
lfingers 7.12502
lthumb 21.8659 2.47071
rfemur 12.3217 15.2162 24.6283
rtibia 3.65764e-014
rfoot -28.4177 -21.1806
rtoes 6.39737
lfemur 21.1573 -9.76594 -12.7631
ltibia -20.19
lfoot -4.46963 21.7884
ltoes -6.12889
90
root -1.15091 18.0808 5.75885 -2.24055 -1.37871 -5.05557
lowerback 2.578 1.74259 3.30371
upperback -0.806284 2.45065 0.5814
thorax -2.16051 1.18193 -1.35827
lowerneck -12.5924 -2.95413 -1.31079
upperneck 17.9579 -4.22964 2.18831
head 7.68543 -1.89903 0.499555
rclavicle 2.23881e-014 1.47101e-014
rhumerus -48.9779 -1.98604 -86.6393
rradius 42.654
rwrist 7.70959
rhand -7.58019 -29.5734
rfingers 7.12502
rthumb 18.3127 -58.7314
lclavicle 2.23881e-014 1.47101e-014
lhumerus -41.8601 8.82329 85.429
lradius 36.3672
lwrist -8.81489
lhand -3.77836 -26.6848
lfingers 7.12502
lthumb 21.9668 2.08797
rfemur 12.3206 15.1546 24.652
rtibia -2.54444e-014
rfoot -28.4172 -21.2092
rtoes 6.31288
lfemur 21.1465 -9.63394 -12.6885
ltibia -20.246
lfoot -4.3526 21.5636
ltoes -6.37072
91
root -1.15151 18.0808 5.7567 -2.22698 -1.28953 -5.10266
lowerback 2.54469 1.75156 3.37839
upperback -0.774472 2.46296 0.582956
thorax -2.10551 1.18835 -1.39694
lowerneck -12.6776 -3.03044 -1.49465
upperneck 17.952 -4.3242 2.33221
head 7.70806 -1.94202 0.565739
rclavicle -1.18774e-014 6.36111e-015
rhumerus -48.9348 -1.4266 -86.9746
rradius 42.6521
rwrist 8.02227
rhand -7.41082 -29.3282
rfingers 7.12502
rthumb 18.4757 -58.4708
lclavicle -1.18774e-014 6.36111e-015
lhumerus -41.8022 8.58381 85.4891
lradius 36.6008
lwrist -8.51761
lhand -3.7187 -26.6269
lfingers 7.12502
lthumb 22.0241 2.13904
rfemur 12.2981 15.0648 24.691
rtibia 3.81667e-014
rfoot -28.4585 -21.1429
rtoes 6.58611
lfemur 21.107 -9.45598 -12.5744
ltibia -20.3024
lfoot -4.17579 21.2887
ltoes -6.64773
